<svg xmlns="http://www.w3.org/2000/svg" viewBox="0 0 500 400" width="500" height="400">
  <defs>
    <linearGradient id="bgTeam" x1="0%" y1="0%" x2="100%" y2="100%">
      <stop offset="0%" style="stop-color:#EFF6FF"/>
      <stop offset="100%" style="stop-color:#F0FDFA"/>
    </linearGradient>
  </defs>

  <!-- Background -->
  <rect width="500" height="400" rx="16" fill="url(#bgTeam)"/>

  <!-- Person 1 (left) -->
  <g transform="translate(80, 100)">
    <circle cx="50" cy="50" r="40" fill="#FCD34D"/>
    <path d="M10 40 Q50 15 90 40 L90 55 L10 55 Z" fill="#F97316"/>
    <rect x="5" y="55" width="90" height="8" rx="4" fill="#EA580C"/>
    <rect x="20" cy="100" width="60" height="120" rx="8" fill="#2563EB"/>
    <rect x="0" y="110" width="25" height="70" rx="8" fill="#2563EB"/>
    <rect x="75" y="110" width="25" height="70" rx="8" fill="#2563EB"/>
    <rect x="25" y="215" width="20" height="60" rx="6" fill="#374151"/>
    <rect x="55" y="215" width="20" height="60" rx="6" fill="#374151"/>
  </g>

  <!-- Person 2 (center) -->
  <g transform="translate(200, 80)">
    <circle cx="50" cy="50" r="45" fill="#FDE68A"/>
    <path d="M5 40 Q50 10 95 40 L95 58 L5 58 Z" fill="#F97316"/>
    <rect x="0" y="58" width="100" height="10" rx="5" fill="#EA580C"/>
    <rect x="15" y="105" width="70" height="130" rx="10" fill="#1D4ED8"/>
    <rect x="-10" y="115" width="30" height="80" rx="10" fill="#1D4ED8"/>
    <rect x="80" y="115" width="30" height="80" rx="10" fill="#1D4ED8"/>
    <rect x="22" y="230" width="25" height="70" rx="8" fill="#1F2937"/>
    <rect x="53" y="230" width="25" height="70" rx="8" fill="#1F2937"/>
  </g>

  <!-- Person 3 (right) -->
  <g transform="translate(320, 100)">
    <circle cx="50" cy="50" r="40" fill="#FBBF24"/>
    <path d="M10 40 Q50 15 90 40 L90 55 L10 55 Z" fill="#F97316"/>
    <rect x="5" y="55" width="90" height="8" rx="4" fill="#EA580C"/>
    <rect x="20" y="100" width="60" height="120" rx="8" fill="#2563EB"/>
    <rect x="0" y="110" width="25" height="70" rx="8" fill="#2563EB"/>
    <rect x="75" y="110" width="25" height="70" rx="8" fill="#2563EB"/>
    <rect x="25" y="215" width="20" height="60" rx="6" fill="#374151"/>
    <rect x="55" y="215" width="20" height="60" rx="6" fill="#374151"/>
  </g>

  <!-- Tools decoration -->
  <g opacity="0.3">
    <rect x="30" y="350" width="60" height="8" rx="4" fill="#6B7280" transform="rotate(-15 60 354)"/>
    <rect x="420" y="340" width="50" height="8" rx="4" fill="#6B7280" transform="rotate(20 445 344)"/>
  </g>
</svg>
