<svg xmlns="http://www.w3.org/2000/svg" viewBox="0 0 180 180" width="180" height="180">
  <defs>
    <linearGradient id="appleGradient" x1="0%" y1="0%" x2="100%" y2="100%">
      <stop offset="0%" style="stop-color:#2563EB"/>
      <stop offset="100%" style="stop-color:#0D9488"/>
    </linearGradient>
  </defs>

  <!-- Background -->
  <rect width="180" height="180" rx="36" fill="url(#appleGradient)"/>

  <!-- Water Droplet -->
  <path d="M90 30C90 30 45 72 45 106C45 135 64 158 90 158C116 158 135 135 135 106C135 72 90 30 90 30Z"
        fill="#FFFFFF"/>

  <!-- Wave details -->
  <path d="M65 95C65 95 75 85 90 85C105 85 115 95 115 95"
        stroke="url(#appleGradient)" stroke-width="6" stroke-linecap="round" fill="none"/>
  <path d="M58 115C58 115 70 102 90 102C110 102 122 115 122 115"
        stroke="url(#appleGradient)" stroke-width="6" stroke-linecap="round" fill="none"/>
</svg>
